<?xml version="1.0" encoding="UTF-8" standalone="no"?>
<!-- Created with Inkscape (http://www.inkscape.org/) -->

<svg
   xmlns:dc="http://purl.org/dc/elements/1.1/"
   xmlns:cc="http://creativecommons.org/ns#"
   xmlns:rdf="http://www.w3.org/1999/02/22-rdf-syntax-ns#"
   xmlns:svg="http://www.w3.org/2000/svg"
   xmlns="http://www.w3.org/2000/svg"
   xmlns:xlink="http://www.w3.org/1999/xlink"
   xmlns:sodipodi="http://sodipodi.sourceforge.net/DTD/sodipodi-0.dtd"
   xmlns:inkscape="http://www.inkscape.org/namespaces/inkscape"
   width="480"
   height="800"
   id="svg2"
   version="1.1"
   inkscape:version="0.47 r22583"
   sodipodi:docname="menuprincipal.svg"
   inkscape:export-filename="/mnt/mac/menuprincipal-h.png"
   inkscape:export-xdpi="90"
   inkscape:export-ydpi="90">
  <defs
     id="defs4">
    <linearGradient
       id="linearGradient4083">
      <stop
         style="stop-color:#ffffff;stop-opacity:1;"
         offset="0"
         id="stop4085" />
      <stop
         style="stop-color:#000000;stop-opacity:1;"
         offset="1"
         id="stop4087" />
    </linearGradient>
    <inkscape:perspective
       sodipodi:type="inkscape:persp3d"
       inkscape:vp_x="0 : 526.18109 : 1"
       inkscape:vp_y="0 : 1000 : 0"
       inkscape:vp_z="744.09448 : 526.18109 : 1"
       inkscape:persp3d-origin="372.04724 : 350.78739 : 1"
       id="perspective10" />
    <linearGradient
       inkscape:collect="always"
       xlink:href="#linearGradient4083"
       id="linearGradient4089"
       x1="120"
       y1="155.48027"
       x2="120"
       y2="219.33177"
       gradientUnits="userSpaceOnUse" />
  </defs>
  <sodipodi:namedview
     id="base"
     pagecolor="#1b8e3c"
     bordercolor="#666666"
     borderopacity="1.0"
     inkscape:pageopacity="1"
     inkscape:pageshadow="2"
     inkscape:zoom="0.53875"
     inkscape:cx="240"
     inkscape:cy="400"
     inkscape:document-units="px"
     inkscape:current-layer="layer5"
     showgrid="false"
     inkscape:window-width="956"
     inkscape:window-height="699"
     inkscape:window-x="22"
     inkscape:window-y="85"
     inkscape:window-maximized="0" />
  <metadata
     id="metadata7">
    <rdf:RDF>
      <cc:Work
         rdf:about="">
        <dc:format>image/svg+xml</dc:format>
        <dc:type
           rdf:resource="http://purl.org/dc/dcmitype/StillImage" />
        <dc:title></dc:title>
      </cc:Work>
    </rdf:RDF>
  </metadata>
  <g
     inkscape:label="Layer 1"
     inkscape:groupmode="layer"
     id="layer1"
     transform="translate(0,-252.36218)"
     style="display:inline" />
  <g
     inkscape:groupmode="layer"
     id="layer6"
     inkscape:label="bg"
     style="display:inline"
     transform="translate(0,548)" />
  <g
     inkscape:groupmode="layer"
     id="layer5"
     inkscape:label="naipe"
     style="display:inline"
     transform="translate(0,548)">
    <text
       xml:space="preserve"
       style="font-size:12px;font-style:normal;font-variant:normal;font-weight:normal;font-stretch:normal;fill:#000000;fill-opacity:1;stroke:none;font-family:DejaVu Sans;-inkscape-font-specification:DejaVu Sans"
       x="-23.879032"
       y="-40.645161"
       id="text3624"><tspan
         sodipodi:role="line"
         id="tspan3626"
         x="-23.879032"
         y="-40.645161" /><tspan
         sodipodi:role="line"
         id="tspan3628"
         x="-23.879032"
         y="-25.645161" /><tspan
         sodipodi:role="line"
         id="tspan3630"
         x="-23.879032"
         y="-10.645161" /></text>
    <flowRoot
       xml:space="preserve"
       id="flowRoot3652"
       style="font-size:12px;font-style:normal;font-variant:normal;font-weight:normal;font-stretch:normal;fill:#000000;fill-opacity:1;stroke:none;font-family:DejaVu Sans;-inkscape-font-specification:DejaVu Sans"><flowRegion
         id="flowRegion3654"><rect
           id="rect3656"
           width="459.29031"
           height="300.7742"
           x="-444.55646"
           y="-126.50806" /></flowRegion><flowPara
         id="flowPara3658" /></flowRoot>    <flowRoot
       xml:space="preserve"
       id="flowRoot3672"
       style="font-size:12px;font-style:normal;font-variant:normal;font-weight:normal;font-stretch:normal;fill:#000000;fill-opacity:1;stroke:none;font-family:DejaVu Sans;-inkscape-font-specification:DejaVu Sans"><flowRegion
         id="flowRegion3674"><rect
           id="rect3676"
           width="142.26532"
           height="43.110703"
           x="-444.04025"
           y="170.80818" /></flowRegion><flowPara
         id="flowPara3678" /></flowRoot>    <flowRoot
       xml:space="preserve"
       id="flowRoot3792"
       style="font-size:12px;font-style:normal;font-variant:normal;font-weight:normal;font-stretch:normal;fill:#000000;fill-opacity:1;stroke:none;font-family:DejaVu Sans;-inkscape-font-specification:DejaVu Sans"><flowRegion
         id="flowRegion3794"><rect
           id="rect3796"
           width="389.04874"
           height="180.41763"
           x="-53.457077"
           y="38.607887" /></flowRegion><flowPara
         id="flowPara3798" /></flowRoot>    <g
       id="g3285">
      <rect
         style="fill:#ffffff;fill-opacity:1;stroke:#000000;stroke-width:0.84927487;stroke-miterlimit:4;stroke-opacity:1;stroke-dasharray:none;display:inline"
         id="rect3722"
         width="76.014023"
         height="106.58791"
         x="161.64629"
         y="-405.87006"
         rx="13.371686" />
      <rect
         rx="13.371686"
         y="-405.87006"
         x="323.03305"
         height="106.58791"
         width="76.014023"
         id="rect3762"
         style="fill:#ffffff;fill-opacity:1;stroke:#000000;stroke-width:0.84927487;stroke-miterlimit:4;stroke-opacity:1;stroke-dasharray:none;display:inline" />
      <rect
         style="fill:#ffffff;fill-opacity:1;stroke:#000000;stroke-width:0.84927487;stroke-miterlimit:4;stroke-opacity:1;stroke-dasharray:none;display:inline"
         id="rect3772"
         width="76.014023"
         height="106.58791"
         x="80.952904"
         y="-405.87006"
         rx="13.371686" />
      <rect
         rx="13.371686"
         y="-405.87006"
         x="242.33966"
         height="106.58791"
         width="76.014023"
         id="rect3782"
         style="fill:#ffffff;fill-opacity:1;stroke:#000000;stroke-width:0.84927487;stroke-miterlimit:4;stroke-opacity:1;stroke-dasharray:none;display:inline" />
      <rect
         rx="13.371686"
         y="-284.71786"
         x="40.802254"
         height="106.58791"
         width="76.014023"
         id="rect3875"
         style="fill:#ffffff;fill-opacity:1;stroke:#ff0000;stroke-width:0.84927487;stroke-miterlimit:4;stroke-opacity:1;stroke-dasharray:none;display:inline" />
      <rect
         style="fill:#ffffff;fill-opacity:1;stroke:#ff0000;stroke-width:0.84927487;stroke-miterlimit:4;stroke-opacity:1;stroke-dasharray:none;display:inline"
         id="rect3890"
         width="76.014023"
         height="106.58791"
         x="121.39762"
         y="-284.71786"
         rx="13.371686" />
      <rect
         rx="13.371686"
         y="-284.71786"
         x="201.99298"
         height="106.58791"
         width="76.014023"
         id="rect3900"
         style="fill:#ffffff;fill-opacity:1;stroke:#ff0000;stroke-width:0.84927487;stroke-miterlimit:4;stroke-opacity:1;stroke-dasharray:none;display:inline" />
      <rect
         style="fill:#ffffff;fill-opacity:1;stroke:#ff0000;stroke-width:0.84927487;stroke-miterlimit:4;stroke-opacity:1;stroke-dasharray:none;display:inline"
         id="rect3910"
         width="76.014023"
         height="106.58791"
         x="282.58835"
         y="-284.71786"
         rx="13.371686" />
      <rect
         rx="13.371686"
         y="-284.71786"
         x="363.18372"
         height="106.58791"
         width="76.014023"
         id="rect3920"
         style="fill:#ffffff;fill-opacity:1;stroke:#ff0000;stroke-width:0.84927487;stroke-miterlimit:4;stroke-opacity:1;stroke-dasharray:none;display:inline" />
      <g
         id="g3247">
        <g
           style="font-size:8.83200836px;font-style:normal;font-variant:normal;font-weight:normal;font-stretch:normal;fill:#ff0000;fill-opacity:1;stroke:none;font-family:DejaVu Sans;-inkscape-font-specification:DejaVu Sans"
           id="text3724">
          <path
             d="m 191.92993,-370.41907 0,-1.93715 -2.5554,0 0,-16.61006 -7.17159,0.32972 0,1.93716 c 2.43175,0 2.72026,0 2.72026,1.60742 l 0,12.73576 -2.84391,0 0,1.93715 5.02836,-0.12365 4.82228,0.12365 m -1.97837,-25.01813 c 0,-1.77229 -1.44257,-3.21485 -3.21485,-3.21485 -1.77229,0 -3.21485,1.44256 -3.21485,3.21485 0,1.77229 1.44256,3.21485 3.21485,3.21485 1.77228,0 3.21485,-1.44256 3.21485,-3.21485"
             style="font-size:41.21603775px;font-weight:bold;text-align:center;text-anchor:middle;fill:#000000;font-family:LMRoman10;-inkscape-font-specification:LMRoman10 Bold"
             id="path3245" />
        </g>
        <g
           style="font-size:5.09564924px;font-style:normal;font-variant:normal;font-weight:normal;font-stretch:normal;fill:#000000;fill-opacity:1;stroke:none;font-family:DejaVu Sans;-inkscape-font-specification:DejaVu Sans"
           id="text3728">
          <path
             d="m 199.69807,-350.22068 c 1.87103,3.32416 4.95629,7.73309 9.25577,13.2268 4.71742,5.53358 7.13586,8.86764 7.25533,10.0022 0.77625,1.69193 1.16439,3.33409 1.16444,4.92646 l 0,1.19429 c -5e-5,3.32413 -1.61234,5.94162 -4.83689,7.85248 -1.055,0.43791 -2.21943,0.65686 -3.4933,0.65686 -3.06539,0 -5.54354,-2.19948 -7.43448,-6.59847 l -1.254,0 0,0.35829 c -3e-5,5.63309 0.82602,9.94249 2.47815,12.92822 l -6.41932,0 0,-0.17915 c 1.69189,-3.00563 2.53784,-7.34489 2.53787,-13.01779 l -0.0896,-0.0896 -1.13458,0 -1.40329,2.62744 c -1.69194,2.64736 -3.80186,3.97103 -6.32975,3.97103 -3.72223,0 -6.33972,-2.08005 -7.85248,-6.24018 l -0.26872,-2.17959 0,-1.37343 c -1e-5,-3.64258 1.8611,-7.48422 5.58332,-11.52493 6.27002,-7.68325 10.2908,-13.16704 12.06236,-16.45138 l 0.0896,-0.0896 0.0896,0"
             style="font-size:61.14779282px;fill:#000000"
             id="path3200" />
        </g>
        <g
           style="font-size:8.83200836px;font-style:normal;font-variant:normal;font-weight:normal;font-stretch:normal;fill:#ff0000;fill-opacity:1;stroke:none;font-family:DejaVu Sans;-inkscape-font-specification:DejaVu Sans"
           id="text3764">
          <path
             d="m 353.31672,-370.41907 0,-1.93715 -2.55539,0 0,-16.61006 -7.17159,0.32972 0,1.93716 c 2.43174,0 2.72026,0 2.72026,1.60742 l 0,12.73576 -2.84391,0 0,1.93715 5.02836,-0.12365 4.82227,0.12365 m -1.97837,-25.01813 c 0,-1.77229 -1.44256,-3.21485 -3.21485,-3.21485 -1.77229,0 -3.21485,1.44256 -3.21485,3.21485 0,1.77229 1.44256,3.21485 3.21485,3.21485 1.77229,0 3.21485,-1.44256 3.21485,-3.21485"
             style="font-size:41.21603775px;font-weight:bold;text-align:center;text-anchor:middle;fill:#000000;font-family:LMRoman10;-inkscape-font-specification:LMRoman10 Bold"
             id="path3236" />
        </g>
        <g
           style="font-size:5.09564924px;font-style:normal;font-variant:normal;font-weight:normal;font-stretch:normal;fill:#000000;fill-opacity:1;stroke:none;font-family:DejaVu Sans;-inkscape-font-specification:DejaVu Sans"
           id="text3768">
          <path
             d="m 361.08485,-350.22068 c 1.87103,3.32416 4.95629,7.73309 9.25577,13.2268 4.71742,5.53358 7.13586,8.86764 7.25533,10.0022 0.77625,1.69193 1.16439,3.33409 1.16444,4.92646 l 0,1.19429 c -5e-5,3.32413 -1.61234,5.94162 -4.83689,7.85248 -1.055,0.43791 -2.21943,0.65686 -3.4933,0.65686 -3.06539,0 -5.54354,-2.19948 -7.43448,-6.59847 l -1.254,0 0,0.35829 c -3e-5,5.63309 0.82602,9.94249 2.47815,12.92822 l -6.41932,0 0,-0.17915 c 1.69189,-3.00563 2.53784,-7.34489 2.53787,-13.01779 l -0.0896,-0.0896 -1.13458,0 -1.40329,2.62744 c -1.69194,2.64736 -3.80186,3.97103 -6.32975,3.97103 -3.72223,0 -6.33972,-2.08005 -7.85248,-6.24018 l -0.26872,-2.17959 0,-1.37343 c -10e-6,-3.64258 1.8611,-7.48422 5.58332,-11.52493 6.27002,-7.68325 10.2908,-13.16704 12.06236,-16.45138 l 0.0896,-0.0896 0.0896,0"
             style="font-size:61.14779282px;fill:#000000"
             id="path3194" />
        </g>
        <g
           style="font-size:8.83200836px;font-style:normal;font-variant:normal;font-weight:normal;font-stretch:normal;fill:#ff0000;fill-opacity:1;stroke:none;font-family:DejaVu Sans;-inkscape-font-specification:DejaVu Sans"
           id="text3774">
          <path
             d="m 124.78376,-370.41907 0,-1.93715 -2.84391,0 0,-10.67495 c 0,-4.24525 -2.10202,-5.93511 -6.34727,-5.93511 -3.75066,0 -5.89389,2.0608 -6.96551,3.95674 -0.82432,-3.83309 -4.6162,-3.95674 -6.18241,-3.95674 -3.585788,0 -5.935107,1.85472 -7.254019,4.45133 l 0,-4.45133 -7.089158,0.32972 0,1.93716 c 2.555391,0 2.843906,0 2.843906,1.60742 l 0,12.73576 -2.843906,0 0,1.93715 5.19322,-0.12365 5.193221,0.12365 0,-1.93715 -2.843906,0 0,-8.61415 c 0,-4.49255 3.585797,-6.51214 6.141192,-6.51214 1.40134,0 2.3081,0.82433 2.3081,3.99796 l 0,11.12833 -2.84391,0 0,1.93715 5.19322,-0.12365 5.19322,0.12365 0,-1.93715 -2.84391,0 0,-8.61415 c 0,-4.49255 3.5858,-6.51214 6.14119,-6.51214 1.40135,0 2.3081,0.82433 2.3081,3.99796 l 0,11.12833 -2.84391,0 0,1.93715 5.19323,-0.12365 5.19322,0.12365"
             style="font-size:41.21603775px;font-weight:bold;text-align:center;text-anchor:middle;fill:#000000;font-family:LMRoman10;-inkscape-font-specification:LMRoman10 Bold"
             id="path3242" />
        </g>
        <g
           style="font-size:5.09564924px;font-style:normal;font-variant:normal;font-weight:normal;font-stretch:normal;fill:#000000;fill-opacity:1;stroke:none;font-family:DejaVu Sans;-inkscape-font-specification:DejaVu Sans"
           id="text3778">
          <path
             d="m 118.97485,-350.22068 c 4.25961,5e-5 7.39463,2.25925 9.40506,6.77762 0.25872,1.03509 0.41796,2.10995 0.47771,3.22459 -3e-5,2.3289 -1.19433,5.08572 -3.58288,8.27047 l -1.79143,1.79144 0.0896,0 c 1.47293,-0.55731 3.04541,-0.83598 4.71745,-0.836 l 0.56729,0 c 4.73732,2e-5 8.06143,2.01041 9.97235,6.03118 0.45776,1.31374 0.68667,2.56774 0.68672,3.76202 -5e-5,4.08051 -2.08011,7.15581 -6.24018,9.22591 -0.79624,0.23887 -1.90096,0.41801 -3.31417,0.53743 -4.81701,10e-6 -8.23069,-2.72696 -10.24106,-8.1809 l -0.0896,0 0,0.26871 c -3e-5,6.82738 0.81607,11.32588 2.4483,13.49551 l 0,0.17915 -6.21032,0 -0.17914,-0.17915 c 1.69188,-2.54782 2.53784,-7.13589 2.53787,-13.76422 l 0,-0.0896 -0.0896,0 c -1.99052,5.51366 -5.42411,8.27048 -10.30078,8.27047 -3.80184,10e-6 -6.71791,-2.00043 -8.748195,-6.00132 -0.497629,-1.35352 -0.74644,-2.60752 -0.746433,-3.76202 -7e-6,-4.63782 2.448288,-7.78279 7.344898,-9.43491 1.31371,-0.23884 2.47814,-0.35827 3.49331,-0.35829 l 0.26872,0 c 1.7118,2e-5 3.34399,0.27869 4.8966,0.836 l 0.0896,0 0,-0.0896 c -1.67203,-1.41322 -2.79666,-2.80656 -3.37388,-4.18002 -1.19431,-2.18951 -1.79146,-4.09042 -1.79144,-5.70275 l 0,-0.418 c -2e-5,-4.00085 2.13976,-7.03634 6.41933,-9.10649 1.41322,-0.37815 2.50798,-0.56724 3.2843,-0.56729"
             style="font-size:61.14779282px;fill:#000000"
             id="path3203" />
        </g>
        <g
           style="font-size:8.83200836px;font-style:normal;font-variant:normal;font-weight:normal;font-stretch:normal;fill:#ff0000;fill-opacity:1;stroke:none;font-family:DejaVu Sans;-inkscape-font-specification:DejaVu Sans"
           id="text3784">
          <path
             d="m 279.5824,-370.41907 0,-1.93715 -2.8439,0 0,-10.67495 c 0,-4.32768 -2.22567,-5.93511 -6.34727,-5.93511 -3.95674,0 -6.14119,2.34931 -7.21281,4.45133 l 0,-4.45133 -7.08916,0.32972 0,1.93716 c 2.55539,0 2.84391,0 2.84391,1.60742 l 0,12.73576 -2.84391,0 0,1.93715 5.19322,-0.12365 5.19322,0.12365 0,-1.93715 -2.8439,0 0,-8.61415 c 0,-4.49255 3.54458,-6.51214 6.14119,-6.51214 1.40134,0 2.26688,0.86554 2.26688,3.99796 l 0,11.12833 -2.84391,0 0,1.93715 5.19322,-0.12365 5.19322,0.12365"
             style="font-size:41.21603775px;font-weight:bold;text-align:center;text-anchor:middle;fill:#000000;font-family:LMRoman10;-inkscape-font-specification:LMRoman10 Bold"
             id="path3239" />
        </g>
        <g
           style="font-size:5.09564924px;font-style:normal;font-variant:normal;font-weight:normal;font-stretch:normal;fill:#000000;fill-opacity:1;stroke:none;font-family:DejaVu Sans;-inkscape-font-specification:DejaVu Sans"
           id="text3788">
          <path
             d="m 280.36161,-350.22068 c 4.25961,5e-5 7.39463,2.25925 9.40505,6.77762 0.25873,1.03509 0.41797,2.10995 0.47772,3.22459 -4e-5,2.3289 -1.19433,5.08572 -3.58288,8.27047 l -1.79144,1.79144 0.0896,0 c 1.47293,-0.55731 3.04542,-0.83598 4.71746,-0.836 l 0.56729,0 c 4.73732,2e-5 8.06143,2.01041 9.97235,6.03118 0.45776,1.31374 0.68667,2.56774 0.68671,3.76202 -4e-5,4.08051 -2.0801,7.15581 -6.24018,9.22591 -0.79623,0.23887 -1.90095,0.41801 -3.31416,0.53743 -4.81701,10e-6 -8.2307,-2.72696 -10.24106,-8.1809 l -0.0896,0 0,0.26871 c -3e-5,6.82738 0.81607,11.32588 2.4483,13.49551 l 0,0.17915 -6.21032,0 -0.17915,-0.17915 c 1.69189,-2.54782 2.53785,-7.13589 2.53787,-13.76422 l 0,-0.0896 -0.0896,0 c -1.99051,5.51366 -5.4241,8.27048 -10.30077,8.27047 -3.80185,10e-6 -6.71791,-2.00043 -8.7482,-6.00132 -0.49763,-1.35352 -0.74644,-2.60752 -0.74643,-3.76202 -1e-5,-4.63782 2.44829,-7.78279 7.3449,-9.43491 1.31371,-0.23884 2.47814,-0.35827 3.49331,-0.35829 l 0.26871,0 c 1.7118,2e-5 3.344,0.27869 4.8966,0.836 l 0.0896,0 0,-0.0896 c -1.67203,-1.41322 -2.79665,-2.80656 -3.37387,-4.18002 -1.19431,-2.18951 -1.79146,-4.09042 -1.79144,-5.70275 l 0,-0.418 c -2e-5,-4.00085 2.13975,-7.03634 6.41932,-9.10649 1.41322,-0.37815 2.50799,-0.56724 3.28431,-0.56729"
             style="font-size:61.14779282px;fill:#000000"
             id="path3197" />
        </g>
        <g
           style="font-size:8.83200836px;font-style:normal;font-variant:normal;font-weight:normal;font-stretch:normal;fill:#ff0000;fill-opacity:1;stroke:none;font-family:DejaVu Sans;-inkscape-font-specification:DejaVu Sans"
           id="text3877">
          <path
             d="m 80.556905,-267.15462 -0.865537,-9.93307 -27.738394,0 -0.865536,9.93307 1.937153,0 c 0.370944,-4.65741 0.783111,-7.99591 6.718214,-7.99591 l 3.173635,0 0,23.94652 -6.306053,0 0,1.93715 c 2.225663,-0.12365 6.800648,-0.12365 9.232392,-0.12365 2.431744,0 7.006729,0 9.232393,0.12365 l 0,-1.93715 -6.306054,0 0,-23.94652 3.132419,0 c 5.893887,0 6.306054,3.29729 6.718214,7.99591 l 1.937154,0"
             style="font-size:41.21603775px;font-weight:bold;text-align:center;text-anchor:middle;fill:#ff0000;font-family:LMRoman10;-inkscape-font-specification:LMRoman10 Bold"
             id="path3233" />
        </g>
        <g
           style="font-size:5.09564924px;font-style:normal;font-variant:normal;font-weight:normal;font-stretch:normal;fill:#ff0000;fill-opacity:1;stroke:none;font-family:DejaVu Sans;-inkscape-font-specification:DejaVu Sans"
           id="text3881">
          <path
             d="m 67.866564,-229.06847 c 4.04067,5e-5 7.215495,2.33887 9.524485,7.01647 0.835978,1.85119 1.273885,3.26444 1.313722,4.23974 l 0.08957,0 c 0.696643,-3.22455 1.960601,-5.90176 3.79188,-8.03162 2.149693,-2.14968 4.568134,-3.22454 7.255329,-3.22459 4.160077,5e-5 7.494141,2.22939 10.002202,6.68804 0.636906,1.65214 0.955386,3.20472 0.955436,4.65774 -5e-5,4.97625 -2.070157,9.72356 -6.210324,14.24194 l -15.794523,18.9594 -0.179144,0 -16.779814,-20.57169 c -3.344027,-4.08048 -5.016035,-8.29035 -5.01603,-12.62965 -5e-6,-4.19989 1.980528,-7.53395 5.941607,-10.0022 1.671997,-0.89568 3.373862,-1.34353 5.105602,-1.34358"
             style="font-size:61.14779282px;fill:#ff0000"
             id="path3206" />
        </g>
        <g
           style="font-size:8.83200836px;font-style:normal;font-variant:normal;font-weight:normal;font-stretch:normal;fill:#ff0000;fill-opacity:1;stroke:none;font-family:DejaVu Sans;-inkscape-font-specification:DejaVu Sans"
           id="text3892">
          <path
             d="m 154.89097,-264.43436 c 0,-2.18445 -2.22567,-3.37972 -4.3689,-3.37972 -2.88512,0 -4.53377,2.06081 -5.48173,4.65741 l 0,-4.65741 -6.84187,0.32973 0,1.93715 c 2.5554,0 2.84391,10e-6 2.84391,1.60743 l 0,12.73576 -2.84391,0 0,1.93715 5.19322,-0.12365 c 1.56621,0 4.20404,0 5.68782,0.12365 l 0,-1.93715 -3.5858,0 0,-7.21281 c 0,-2.88512 1.03041,-7.91348 5.15201,-7.91348 0,0 -0.78311,0.70067 -0.78311,1.89594 0,1.68985 1.31892,2.51418 2.51418,2.51418 1.19526,0 2.51418,-0.86554 2.51418,-2.51418"
             style="font-size:41.21603775px;font-weight:bold;text-align:center;text-anchor:middle;fill:#ff0000;font-family:LMRoman10;-inkscape-font-specification:LMRoman10 Bold"
             id="path3230" />
        </g>
        <g
           style="font-size:5.09564924px;font-style:normal;font-variant:normal;font-weight:normal;font-stretch:normal;fill:#ff0000;fill-opacity:1;stroke:none;font-family:DejaVu Sans;-inkscape-font-specification:DejaVu Sans"
           id="text3896">
          <path
             d="m 159.38972,-229.06848 15.01823,19.49683 c 1.37339,1.69193 2.06011,2.66727 2.06016,2.92601 l -17.07839,22.12428 c -0.23889,-0.15924 -5.95158,-7.53399 -17.1381,-22.12428 -1e-5,-0.27864 1.10471,-1.79141 3.31416,-4.53831 l 13.82394,-17.88453"
             style="font-size:61.14779282px;fill:#ff0000"
             id="path3209" />
        </g>
        <g
           style="font-size:8.83200836px;font-style:normal;font-variant:normal;font-weight:normal;font-stretch:normal;fill:#ff0000;fill-opacity:1;stroke:none;font-family:DejaVu Sans;-inkscape-font-specification:DejaVu Sans"
           id="text3902">
          <path
             d="m 239.23571,-249.26686 0,-1.93715 c -2.55539,0 -2.84391,-1e-5 -2.84391,-1.60743 l 0,-15.00264 -7.54253,0.32973 0,1.93715 c 2.55539,0 2.8439,10e-6 2.8439,1.60743 l 0,7.87226 c 0,3.37971 -2.10202,5.56417 -5.11079,5.56417 -3.17363,0 -3.29728,-1.03041 -3.29728,-3.25607 l 0,-14.05467 -7.54253,0.32973 0,1.93715 c 2.55539,0 2.8439,10e-6 2.8439,1.60743 l 0,9.60334 c 0,4.41011 3.33851,5.31687 7.41889,5.31687 1.07162,0 4.03917,-10e-6 5.93511,-3.21486 l 0,3.21486 7.29524,-0.2473"
             style="font-size:41.21603775px;font-weight:bold;text-align:center;text-anchor:middle;fill:#ff0000;font-family:LMRoman10;-inkscape-font-specification:LMRoman10 Bold"
             id="path3227" />
        </g>
        <g
           style="font-size:5.09564924px;font-style:normal;font-variant:normal;font-weight:normal;font-stretch:normal;fill:#ff0000;fill-opacity:1;stroke:none;font-family:DejaVu Sans;-inkscape-font-specification:DejaVu Sans"
           id="text3906">
          <path
             d="m 229.05729,-229.06847 c 4.04067,5e-5 7.2155,2.33887 9.52449,7.01647 0.83597,1.85119 1.27388,3.26444 1.31372,4.23974 l 0.0896,0 c 0.69664,-3.22455 1.9606,-5.90176 3.79188,-8.03162 2.14969,-2.14968 4.56813,-3.22454 7.25533,-3.22459 4.16008,5e-5 7.49414,2.22939 10.0022,6.68804 0.63691,1.65214 0.95539,3.20472 0.95544,4.65774 -5e-5,4.97625 -2.07016,9.72356 -6.21033,14.24194 l -15.79452,18.9594 -0.17914,0 -16.77982,-20.57169 c -3.34402,-4.08048 -5.01603,-8.29035 -5.01603,-12.62965 0,-4.19989 1.98053,-7.53395 5.94161,-10.0022 1.672,-0.89568 3.37386,-1.34353 5.1056,-1.34358"
             style="font-size:61.14779282px;fill:#ff0000"
             id="path3212" />
        </g>
        <g
           style="font-size:8.83200836px;font-style:normal;font-variant:normal;font-weight:normal;font-stretch:normal;fill:#ff0000;fill-opacity:1;stroke:none;font-family:DejaVu Sans;-inkscape-font-specification:DejaVu Sans"
           id="text3912">
          <path
             d="m 316.80075,-254.08914 c 0,-0.57702 -0.57703,-0.57702 -0.98919,-0.57702 -0.74189,0 -0.7831,0.0824 -0.98918,0.61824 -1.07162,2.59661 -3.04999,3.37971 -5.15201,3.37971 -5.72902,0 -5.72903,-6.05876 -5.72903,-7.95469 0,-2.3081 10e-6,-7.66618 5.31687,-7.66618 1.44256,0 2.14323,0.12364 2.67904,0.24729 -0.74188,0.65946 -0.82432,1.525 -0.82432,1.89594 0,1.8135 1.44256,2.59661 2.5554,2.59661 1.27769,0 2.59661,-0.86554 2.59661,-2.59661 0,-3.54458 -4.78107,-3.79188 -7.17159,-3.79188 -7.37767,0 -10.42766,4.73985 -10.42766,9.52091 0,5.48173 3.87431,9.39726 10.22158,9.39726 6.67699,0 7.91348,-4.78107 7.91348,-5.06958"
             style="font-size:41.21603775px;font-weight:bold;text-align:center;text-anchor:middle;fill:#ff0000;font-family:LMRoman10;-inkscape-font-specification:LMRoman10 Bold"
             id="path3224" />
        </g>
        <g
           style="font-size:5.09564924px;font-style:normal;font-variant:normal;font-weight:normal;font-stretch:normal;fill:#ff0000;fill-opacity:1;stroke:none;font-family:DejaVu Sans;-inkscape-font-specification:DejaVu Sans"
           id="text3916">
          <path
             d="m 320.58044,-229.06847 15.01823,19.49683 c 1.37339,1.69194 2.06011,2.66728 2.06016,2.92602 l -17.07839,22.12427 c -0.23889,-0.15924 -5.95158,-7.53399 -17.1381,-22.12427 -10e-6,-0.27865 1.10471,-1.79142 3.31416,-4.53831 l 13.82394,-17.88454"
             style="font-size:61.14779282px;fill:#ff0000"
             id="path3215" />
        </g>
        <g
           style="font-size:8.83200836px;font-style:normal;font-variant:normal;font-weight:normal;font-stretch:normal;fill:#ff0000;fill-opacity:1;stroke:none;font-family:DejaVu Sans;-inkscape-font-specification:DejaVu Sans"
           id="text3922">
          <path
             d="m 398.74591,-258.25196 c 0,-5.52294 -3.79188,-9.68577 -10.51009,-9.68577 -6.75943,0 -10.51009,4.20405 -10.51009,9.68577 0,5.11079 3.62702,9.2324 10.51009,9.2324 6.92429,0 10.51009,-4.16283 10.51009,-9.2324 m -5.27566,-0.45337 c 0,3.58579 0,8.03712 -5.23443,8.03712 -5.23443,0 -5.23444,-4.45133 -5.23444,-8.03712 0,-1.85472 0,-3.95674 0.70067,-5.35809 0.78311,-1.52499 2.51418,-2.39053 4.53377,-2.39053 1.73107,0 3.46215,0.65946 4.3689,2.10202 0.86553,1.40134 0.86553,3.66823 0.86553,5.6466"
             style="font-size:41.21603775px;font-weight:bold;text-align:center;text-anchor:middle;fill:#ff0000;font-family:LMRoman10;-inkscape-font-specification:LMRoman10 Bold"
             id="path3221" />
        </g>
        <g
           style="font-size:5.09564924px;font-style:normal;font-variant:normal;font-weight:normal;font-stretch:normal;fill:#ff0000;fill-opacity:1;stroke:none;font-family:DejaVu Sans;-inkscape-font-specification:DejaVu Sans"
           id="text3926">
          <path
             d="m 390.24803,-229.06847 c 4.04067,5e-5 7.21549,2.33887 9.52448,7.01647 0.83598,1.85119 1.27389,3.26444 1.31372,4.23974 l 0.0896,0 c 0.69664,-3.22455 1.9606,-5.90176 3.79187,-8.03162 2.1497,-2.14968 4.56814,-3.22454 7.25533,-3.22459 4.16008,5e-5 7.49415,2.22939 10.00221,6.68804 0.6369,1.65214 0.95538,3.20472 0.95543,4.65774 -5e-5,4.97625 -2.07015,9.72356 -6.21032,14.24194 l -15.79452,18.9594 -0.17915,0 -16.77981,-20.57169 c -3.34403,-4.08048 -5.01604,-8.29035 -5.01603,-12.62965 -1e-5,-4.19989 1.98053,-7.53395 5.9416,-10.0022 1.672,-0.89568 3.37387,-1.34353 5.10561,-1.34358"
             style="font-size:61.14779282px;fill:#ff0000"
             id="path3218" />
        </g>
      </g>
    </g>
  </g>
</svg>
