<?xml version="1.0" encoding="UTF-8" standalone="no"?>
<!-- Generator: Adobe Illustrator 9.0, SVG Export Plug-In  -->

<!-- This set of SVG files is a complete cards game with figures, numbers	-->

<!--    and backs of cards completely designed in SVG.				-->

<!--    									-->

<!--    Copyright (C) 2004 David Bellot						-->

<!--										-->

<!--    This library is free software; you can redistribute it and/or		-->

<!--    modify it under the terms of the GNU Lesser General Public		-->

<!--    License as published by the Free Software Foundation; either		-->

<!--    version 2 of the License, or (at your option) any later version		-->

<!--										-->

<!--    This library is distributed in the hope that it will be useful,		-->

<!--    but WITHOUT ANY WARRANTY; without even the implied warranty of		-->

<!--    MERCHANTABILITY or FITNESS FOR A PARTICULAR PURPOSE.  See the GNU	-->

<!--    Lesser General Public License for more details.				-->

<!--										-->

<!--    You should have received a copy of the GNU Lesser General Public	-->

<!--    License along with this library; if not, write to the Free Software	-->

<!--    Foundation, Inc., 59 Temple Place, Suite 330, Boston, MA 02111-1307  USA-->

<!--										-->

<!--    Contact the author David Bellot at bellot@stat.berkeley.edu or 		-->

<!--    david.bellot@free.fr or yimyom@users.sourceforge.net			-->

<svg
   xmlns:dc="http://purl.org/dc/elements/1.1/"
   xmlns:cc="http://creativecommons.org/ns#"
   xmlns:rdf="http://www.w3.org/1999/02/22-rdf-syntax-ns#"
   xmlns:svg="http://www.w3.org/2000/svg"
   xmlns="http://www.w3.org/2000/svg"
   xmlns:sodipodi="http://sodipodi.sourceforge.net/DTD/sodipodi-0.dtd"
   xmlns:inkscape="http://www.inkscape.org/namespaces/inkscape"
   width="180"
   height="252"
   viewBox="0 0 144 201.6"
   xml:space="preserve"
   id="svg19963"
   version="1.1"
   inkscape:version="0.47 r22583"
   sodipodi:docname="back_02.svg"
   inkscape:export-filename="/home/bani/Pictures/cartas/cartafundo.png"
   inkscape:export-xdpi="90"
   inkscape:export-ydpi="90"><metadata
   id="metadata20116"><rdf:RDF><cc:Work
       rdf:about=""><dc:format>image/svg+xml</dc:format><dc:type
         rdf:resource="http://purl.org/dc/dcmitype/StillImage" /><dc:title></dc:title></cc:Work></rdf:RDF></metadata><defs
   id="defs20114"><inkscape:perspective
   sodipodi:type="inkscape:persp3d"
   inkscape:vp_x="0 : 151.66687 : 1"
   inkscape:vp_y="0 : 1000 : 0"
   inkscape:vp_z="208.94775 : 151.66687 : 1"
   inkscape:persp3d-origin="104.47388 : 101.11125 : 1"
   id="perspective20118" /><inkscape:perspective
   id="perspective21125"
   inkscape:persp3d-origin="60 : 46.666667 : 1"
   inkscape:vp_z="120 : 70 : 1"
   inkscape:vp_y="0 : 1000 : 0"
   inkscape:vp_x="0 : 70 : 1"
   sodipodi:type="inkscape:persp3d" />
		
		
		
		
		
		
		
		
		
		
		
		
		
		
		
		
		
		
		
		
		
		
		
		
		
		
		
		
		
		
		
		
		
		
		
		
		
		
		
		
		
		
		
		
		
		
		
		
		
		
		
		
		
		
		
		
		
		
		
		
		
		
		
		
		
		
		
		
		
		
		
		
		
	<inkscape:perspective
   id="perspective21519"
   inkscape:persp3d-origin="60 : 46.666667 : 1"
   inkscape:vp_z="120 : 70 : 1"
   inkscape:vp_y="0 : 1000 : 0"
   inkscape:vp_x="0 : 70 : 1"
   sodipodi:type="inkscape:persp3d" /></defs><sodipodi:namedview
   pagecolor="#ffffff"
   bordercolor="#666666"
   borderopacity="1"
   objecttolerance="10"
   gridtolerance="10"
   guidetolerance="10"
   inkscape:pageopacity="0"
   inkscape:pageshadow="2"
   inkscape:window-width="1328"
   inkscape:window-height="821"
   id="namedview20112"
   showgrid="false"
   inkscape:zoom="1.0972222"
   inkscape:cx="90"
   inkscape:cy="126"
   inkscape:window-x="0"
   inkscape:window-y="24"
   inkscape:window-maximized="1"
   inkscape:current-layer="layer3" />
	<g
   id="g21263"
   transform="translate(-201.96456,-0.7291145)"><path
     style="fill:#ffffff;fill-rule:nonzero;stroke:#286125;stroke-width:0.5;stroke-miterlimit:4;stroke-opacity:1"
     d="m 357.18856,215.74347 c 0,3.77539 -3.08594,6.86914 -6.86914,6.86914 H 197.47078 c -3.7749,0 -6.86133,-3.09375 -6.86133,-6.86914 V -12.684264 c 0,-3.774902 3.08643,-6.870117 6.86133,-6.870117 h 152.84864 c 3.7832,0 6.86914,3.095215 6.86914,6.870117 V 215.74347 z"
     id="path19966" /><path
     style="fill:#008000;fill-rule:evenodd;stroke:#286125;stroke-width:0.1040067;stroke-miterlimit:10;stroke-opacity:1"
     d="m 336.24716,-19.303404 h 4.15332 l 16.61425,16.6679679 v 4.166993 L 336.24716,-19.303404 z"
     id="path19968" /><path
     style="fill:none;stroke:#286125;stroke-width:0.1040067;stroke-miterlimit:4;stroke-opacity:1"
     d="M 190.71102,-19.604186 H 357.51766 V 222.51691 H 190.71102 V -19.604186 z"
     id="path19970" /><path
     style="fill:#008000;fill-rule:evenodd;stroke:#286125;stroke-width:0.1040067;stroke-miterlimit:10;stroke-opacity:1"
     d="m 327.94051,-19.303404 h 4.15235 l 24.92187,25.0019529 v 4.166992 L 327.94051,-19.303404 z"
     id="path19972" /><path
     style="fill:#008000;fill-rule:evenodd;stroke:#286125;stroke-width:0.1040067;stroke-miterlimit:10;stroke-opacity:1"
     d="m 345.59286,-19.303404 h 4.15234 l 7.26953,7.291992 v 4.1669919 L 345.59286,-19.303404 z"
     id="path19974" /><path
     style="fill:none;stroke:#286125;stroke-width:0.1040067;stroke-miterlimit:4;stroke-opacity:1"
     d="M 190.71102,-19.604186 H 357.51766 V 222.51691 H 190.71102 V -19.604186 z"
     id="path19976" /><path
     style="fill:#008000;fill-rule:evenodd;stroke:#286125;stroke-width:0.1040067;stroke-miterlimit:10;stroke-opacity:1"
     d="m 319.63192,-19.303404 h 4.1543 l 33.22851,33.335937 v 4.166992 l -37.38281,-37.502929 z"
     id="path19978" /><path
     style="fill:#008000;fill-rule:evenodd;stroke:#286125;stroke-width:0.1040067;stroke-miterlimit:10;stroke-opacity:1"
     d="m 311.32528,-19.303404 h 4.1543 l 41.53515,41.669921 v 4.166993 l -45.68945,-45.836914 z"
     id="path19980" /><path
     style="fill:none;stroke:#286125;stroke-width:0.1040067;stroke-miterlimit:4;stroke-opacity:1"
     d="M 190.71102,-19.604186 H 357.51766 V 222.51691 H 190.71102 V -19.604186 z"
     id="path19982" /><path
     style="fill:#008000;fill-rule:evenodd;stroke:#286125;stroke-width:0.1040067;stroke-miterlimit:10;stroke-opacity:1"
     d="m 303.00497,-19.317076 h 4.15234 l 49.85742,50.017578 v 4.166992 l -54.00976,-54.18457 z"
     id="path19984" /><path
     style="fill:#008000;fill-rule:evenodd;stroke:#286125;stroke-width:0.1040067;stroke-miterlimit:10;stroke-opacity:1"
     d="m 278.06942,-19.331236 h 4.15429 l 74.79102,75.033691 0.16602,4.208496 -79.11133,-79.242187 z"
     id="path19986" /><path
     style="fill:none;stroke:#286125;stroke-width:0.1040067;stroke-miterlimit:4;stroke-opacity:1"
     d="M 190.71102,-19.604186 H 357.51766 V 222.51691 H 190.71102 V -19.604186 z"
     id="path19988" /><path
     style="fill:#008000;fill-rule:evenodd;stroke:#286125;stroke-width:0.1040067;stroke-miterlimit:10;stroke-opacity:1"
     d="m 253.13436,-19.345397 h 4.15381 l 99.72656,100.049809 -0.041,4.00049 -103.83937,-104.050299 z"
     id="path19990" /><path
     style="fill:#008000;fill-rule:evenodd;stroke:#286125;stroke-width:0.1040067;stroke-miterlimit:10;stroke-opacity:1"
     d="m 261.44149,-19.345397 h 4.15332 l 91.41992,91.715819 -0.041,4.09766 -95.53224,-95.813479 z"
     id="path19992" /><path
     style="fill:none;stroke:#286125;stroke-width:0.1040067;stroke-miterlimit:4;stroke-opacity:1"
     d="M 190.71102,-19.604186 H 357.51766 V 222.51691 H 190.71102 V -19.604186 z"
     id="path19994" /><path
     style="fill:#008000;fill-rule:evenodd;stroke:#286125;stroke-width:0.1040067;stroke-miterlimit:10;stroke-opacity:1"
     d="m 244.82723,-19.345397 h 4.15381 l 108.03369,108.383789 0.0693,4.09766 -112.2568,-112.481449 z"
     id="path19996" /><path
     style="fill:#008000;fill-rule:evenodd;stroke:#286125;stroke-width:0.1040067;stroke-miterlimit:10;stroke-opacity:1"
     d="m 236.5201,-19.345397 h 4.15381 l 116.34082,116.717779 -0.041,4.208978 L 236.5201,-19.345397 z"
     id="path19998" /><path
     style="fill:none;stroke:#286125;stroke-width:0.1040067;stroke-miterlimit:4;stroke-opacity:1"
     d="M 190.71102,-19.604186 H 357.51766 V 222.51691 H 190.71102 V -19.604186 z"
     id="path20000" /><path
     style="fill:#008000;fill-rule:evenodd;stroke:#286125;stroke-width:0.1040067;stroke-miterlimit:10;stroke-opacity:1"
     d="m 228.21346,-19.345397 h 4.15332 L 357.01473,105.70636 v 4.16699 L 228.21346,-19.345397 z"
     id="path20002" /><path
     style="fill:#008000;fill-rule:evenodd;stroke:#286125;stroke-width:0.1040067;stroke-miterlimit:10;stroke-opacity:1"
     d="m 219.90633,-19.345397 h 4.15332 L 357.01473,114.04035 v 4.16699 L 219.90633,-19.345397 z"
     id="path20004" /><path
     style="fill:none;stroke:#286125;stroke-width:0.1040067;stroke-miterlimit:4;stroke-opacity:1"
     d="M 190.71102,-19.604186 H 357.51766 V 222.51691 H 190.71102 V -19.604186 z"
     id="path20006" /><path
     style="fill:#008000;fill-rule:evenodd;stroke:#286125;stroke-width:0.1040067;stroke-miterlimit:10;stroke-opacity:1"
     d="m 211.59871,-19.345397 h 4.15381 L 357.01473,122.37433 v 4.16699 L 211.59871,-19.345397 z"
     id="path20008" /><path
     style="fill:#008000;fill-rule:evenodd;stroke:#286125;stroke-width:0.1040067;stroke-miterlimit:10;stroke-opacity:1"
     d="m 203.29207,-19.345397 h 4.15332 L 357.01473,130.70832 v 4.16699 L 203.29207,-19.345397 z"
     id="path20010" /><path
     style="fill:none;stroke:#286125;stroke-width:0.1040067;stroke-miterlimit:4;stroke-opacity:1"
     d="M 190.71102,-19.604186 H 357.51766 V 222.51691 H 190.71102 V -19.604186 z"
     id="path20012" /><path
     style="fill:#008000;fill-rule:evenodd;stroke:#286125;stroke-width:0.1040067;stroke-miterlimit:10;stroke-opacity:1"
     d="m 195.9952,-18.914733 3.2539,-0.458007 157.76563,158.41504 v 4.16699 L 195.3033,-18.844908"
     id="path20014" /><path
     style="fill:#008000;fill-rule:evenodd;stroke:#286125;stroke-width:0.1040067;stroke-miterlimit:10;stroke-opacity:1"
     d="m 294.71102,-19.303404 h 4.15332 l 58.15039,58.33789 v 4.166992 l -62.30371,-62.504882 z"
     id="path20016" /><path
     style="fill:none;stroke:#286125;stroke-width:0.1040067;stroke-miterlimit:4;stroke-opacity:1"
     d="M 190.71102,-19.604186 H 357.51766 V 222.51691 H 190.71102 V -19.604186 z"
     id="path20018" /><path
     style="fill:#008000;fill-rule:evenodd;stroke:#286125;stroke-width:0.1040067;stroke-miterlimit:10;stroke-opacity:1"
     d="m 286.40438,-19.303404 h 4.15331 l 66.45704,66.671875 v 4.166992 l -70.61035,-70.838867 z"
     id="path20020" /><path
     style="fill:#008000;fill-rule:evenodd;stroke:#286125;stroke-width:0.1040067;stroke-miterlimit:10;stroke-opacity:1"
     d="m 269.76229,-19.331236 h 4.15283 l 83.09961,83.367675 0.0693,4.208985 -87.32174,-87.57666 z"
     id="path20022" /><path
     style="fill:none;stroke:#286125;stroke-width:0.1040067;stroke-miterlimit:4;stroke-opacity:1"
     d="M 190.71102,-19.604186 H 357.51766 V 222.51691 H 190.71102 V -19.604186 z"
     id="path20024" /><path
     style="fill:#008000;fill-rule:evenodd;stroke:#286125;stroke-width:0.1040067;stroke-miterlimit:10;stroke-opacity:1"
     d="m 192.18807,-16.039244 0.83056,-1.138672 163.9961,164.554196 v 4.167 L 191.3575,-14.677916"
     id="path20026" /><path
     style="fill:#008000;fill-rule:evenodd;stroke:#286125;stroke-width:0.1040067;stroke-miterlimit:10;stroke-opacity:1"
     d="M 190.87313,-6.8024281 V -10.96942 l 166.1416,166.67969 v 4.16699 L 195.02645,-2.6354361"
     id="path20028" /><path
     style="fill:none;stroke:#286125;stroke-width:0.1040067;stroke-miterlimit:4;stroke-opacity:1"
     d="M 190.71102,-19.604186 H 357.51766 V 222.51691 H 190.71102 V -19.604186 z"
     id="path20030" /><path
     style="fill:#008000;fill-rule:evenodd;stroke:#286125;stroke-width:0.1040067;stroke-miterlimit:10;stroke-opacity:1"
     d="m 190.87313,1.5315559 v -4.166992 L 357.01473,164.04425 v 4.16699 L 195.02645,5.6985489"
     id="path20032" /><path
     style="fill:#008000;fill-rule:evenodd;stroke:#286125;stroke-width:0.1040067;stroke-miterlimit:10;stroke-opacity:1"
     d="M 190.87313,9.8655409 V 5.6985489 L 357.01473,172.37824 v 4.16699 L 195.02645,14.032533"
     id="path20034" /><path
     style="fill:none;stroke:#286125;stroke-width:0.1040067;stroke-miterlimit:4;stroke-opacity:1"
     d="M 190.71102,-19.604186 H 357.51766 V 222.51691 H 190.71102 V -19.604186 z"
     id="path20036" /><path
     style="fill:#008000;fill-rule:evenodd;stroke:#286125;stroke-width:0.1040067;stroke-miterlimit:10;stroke-opacity:1"
     d="m 190.87313,26.53351 v -4.166993 l 166.1416,166.679693 v 4.16699 L 195.02645,30.700502"
     id="path20038" /><path
     style="fill:#008000;fill-rule:evenodd;stroke:#286125;stroke-width:0.1040067;stroke-miterlimit:10;stroke-opacity:1"
     d="m 190.87313,18.199525 v -4.166992 l 166.1416,166.679687 v 4.16699 L 195.02645,22.366517"
     id="path20040" /><path
     style="fill:none;stroke:#286125;stroke-width:0.1040067;stroke-miterlimit:4;stroke-opacity:1"
     d="M 190.71102,-19.604186 H 357.51766 V 222.51691 H 190.71102 V -19.604186 z"
     id="path20042" /><path
     style="fill:#008000;fill-rule:evenodd;stroke:#286125;stroke-width:0.1040067;stroke-miterlimit:10;stroke-opacity:1"
     d="m 190.87313,34.867494 v -4.166992 l 166.1416,166.679688 v 4.16699 L 195.02645,39.034486"
     id="path20044" /><path
     style="fill:#008000;fill-rule:evenodd;stroke:#286125;stroke-width:0.10400669;stroke-miterlimit:10;stroke-opacity:1"
     d="m 190.86456,39.029114 0,4.175 4.15,4.175 162,162.499996 0,-4.175 -166.15,-166.674996 z"
     id="path20046" /><path
     style="fill:none;stroke:#286125;stroke-width:0.1040067;stroke-miterlimit:4;stroke-opacity:1"
     d="M 190.71102,-19.604186 H 357.51766 V 222.51691 H 190.71102 V -19.604186 z"
     id="path20048" /><path
     style="fill:#008000;fill-rule:evenodd;stroke:#286125;stroke-width:0.1040067;stroke-miterlimit:10;stroke-opacity:1"
     d="m 190.87313,51.535463 v -4.166992 l 166.1416,166.679689 v 4.16699 L 195.02645,55.702455"
     id="path20050" /><path
     style="fill:#008000;fill-rule:evenodd;stroke:#286125;stroke-width:0.1040067;stroke-miterlimit:10;stroke-opacity:1"
     d="M 190.87313,68.203431 V 64.036439 L 348.70809,222.38214 H 344.5538 L 195.02645,72.370422"
     id="path20052" /><path
     style="fill:none;stroke:#286125;stroke-width:0.1040067;stroke-miterlimit:4;stroke-opacity:1"
     d="M 190.71102,-19.604186 H 357.51766 V 222.51691 H 190.71102 V -19.604186 z"
     id="path20054" /><path
     style="fill:#008000;fill-rule:evenodd;stroke:#286125;stroke-width:0.1040067;stroke-miterlimit:10;stroke-opacity:1"
     d="m 190.87313,76.537412 v -4.16699 L 340.40048,222.38214 h -4.15332 L 195.02645,80.704412"
     id="path20056" /><path
     style="fill:#008000;fill-rule:evenodd;stroke:#286125;stroke-width:0.1040067;stroke-miterlimit:10;stroke-opacity:1"
     d="m 190.87313,84.871402 v -4.16699 L 332.09286,222.38214 h -4.15235 L 195.02645,89.038392"
     id="path20058" /><path
     style="fill:none;stroke:#286125;stroke-width:0.1040067;stroke-miterlimit:4;stroke-opacity:1"
     d="M 190.71102,-19.604186 H 357.51766 V 222.51691 H 190.71102 V -19.604186 z"
     id="path20060" /><path
     style="fill:#008000;fill-rule:evenodd;stroke:#286125;stroke-width:0.1040067;stroke-miterlimit:10;stroke-opacity:1"
     d="m 190.87313,93.205392 v -4.167 L 323.78622,222.38214 h -4.1543 L 195.02645,97.372382"
     id="path20062" /><path
     style="fill:#008000;fill-rule:evenodd;stroke:#286125;stroke-width:0.1040067;stroke-miterlimit:10;stroke-opacity:1"
     d="M 190.87313,101.53937 V 97.372382 L 315.47958,222.38214 h -4.1543 L 195.02645,105.70636"
     id="path20064" /><path
     style="fill:none;stroke:#286125;stroke-width:0.1040067;stroke-miterlimit:4;stroke-opacity:1"
     d="M 190.71102,-19.604186 H 357.51766 V 222.51691 H 190.71102 V -19.604186 z"
     id="path20066" /><path
     style="fill:#008000;fill-rule:evenodd;stroke:#286125;stroke-width:0.1040067;stroke-miterlimit:10;stroke-opacity:1"
     d="m 190.87313,59.869447 v -4.166992 l 164.06445,164.596685 -1.03808,1.04199 h -2.07617 L 195.02645,64.036439"
     id="path20068" /><path
     style="fill:#008000;fill-rule:evenodd;stroke:#286125;stroke-width:0.1040067;stroke-miterlimit:10;stroke-opacity:1"
     d="m 190.87313,109.87335 v -4.16699 l 116.29883,116.67578 h -4.15332 L 190.87313,109.87335 z"
     id="path20070" /><path
     style="fill:none;stroke:#286125;stroke-width:0.1040067;stroke-miterlimit:4;stroke-opacity:1"
     d="M 190.71102,-19.604186 H 357.51766 V 222.51691 H 190.71102 V -19.604186 z"
     id="path20072" /><path
     style="fill:#008000;fill-rule:evenodd;stroke:#286125;stroke-width:0.1040067;stroke-miterlimit:10;stroke-opacity:1"
     d="m 190.87313,118.20734 v -4.16699 l 107.99121,108.34179 h -4.15332 L 190.87313,118.20734 z"
     id="path20074" /><path
     style="fill:#008000;fill-rule:evenodd;stroke:#286125;stroke-width:0.1040067;stroke-miterlimit:10;stroke-opacity:1"
     d="m 190.87313,126.54132 v -4.16699 l 99.68456,100.00781 h -4.15331 l -95.53125,-95.84082 z"
     id="path20076" /><path
     style="fill:none;stroke:#286125;stroke-width:0.1040067;stroke-miterlimit:4;stroke-opacity:1"
     d="M 190.71102,-19.604186 H 357.51766 V 222.51691 H 190.71102 V -19.604186 z"
     id="path20078" /><path
     style="fill:#008000;fill-rule:evenodd;stroke:#286125;stroke-width:0.1040067;stroke-miterlimit:10;stroke-opacity:1"
     d="m 190.87313,134.87531 v -4.16699 l 91.37793,91.67382 h -4.1543 l -87.22363,-87.50683 z"
     id="path20080" /><path
     style="fill:#008000;fill-rule:evenodd;stroke:#286125;stroke-width:0.1040067;stroke-miterlimit:10;stroke-opacity:1"
     d="m 190.87313,143.20929 v -4.16699 l 83.07129,83.33984 h -4.15381 l -78.91748,-79.17285 z"
     id="path20082" /><path
     style="fill:none;stroke:#286125;stroke-width:0.1040067;stroke-miterlimit:4;stroke-opacity:1"
     d="M 190.71102,-19.604186 H 357.51766 V 222.51691 H 190.71102 V -19.604186 z"
     id="path20084" /><path
     style="fill:#008000;fill-rule:evenodd;stroke:#286125;stroke-width:0.1040067;stroke-miterlimit:10;stroke-opacity:1"
     d="m 190.87313,151.54328 v -4.167 l 74.76367,75.00586 h -4.15381 l -70.60986,-70.83886 z"
     id="path20086" /><path
     style="fill:#008000;fill-rule:evenodd;stroke:#286125;stroke-width:0.1040067;stroke-miterlimit:10;stroke-opacity:1"
     d="m 190.87313,159.87726 v -4.16699 l 66.45654,66.67187 h -4.15381 l -62.30273,-62.50488 z"
     id="path20088" /><path
     style="fill:none;stroke:#286125;stroke-width:0.1040067;stroke-miterlimit:4;stroke-opacity:1"
     d="M 190.71102,-19.604186 H 357.51766 V 222.51691 H 190.71102 V -19.604186 z"
     id="path20090" /><path
     style="fill:#008000;fill-rule:evenodd;stroke:#286125;stroke-width:0.1040067;stroke-miterlimit:10;stroke-opacity:1"
     d="m 190.87313,168.21124 v -4.16699 l 58.14941,58.33789 h -4.15332 l -53.99609,-54.1709 z"
     id="path20092" /><path
     style="fill:#008000;fill-rule:evenodd;stroke:#286125;stroke-width:0.1040067;stroke-miterlimit:10;stroke-opacity:1"
     d="m 190.87313,176.54523 v -4.16699 l 49.84228,50.0039 h -4.15332 l -45.68896,-45.83691 z"
     id="path20094" /><path
     style="fill:none;stroke:#286125;stroke-width:0.1040067;stroke-miterlimit:4;stroke-opacity:1"
     d="M 190.71102,-19.604186 H 357.51766 V 222.51691 H 190.71102 V -19.604186 z"
     id="path20096" /><path
     style="fill:#008000;fill-rule:evenodd;stroke:#286125;stroke-width:0.1040067;stroke-miterlimit:10;stroke-opacity:1"
     d="m 190.87313,184.87921 v -4.16699 l 41.53515,41.66992 h -4.15332 l -37.38183,-37.50293 z"
     id="path20098" /><path
     style="fill:#008000;fill-rule:evenodd;stroke:#286125;stroke-width:0.1040067;stroke-miterlimit:10;stroke-opacity:1"
     d="m 190.87313,193.2132 v -4.16699 l 33.22802,33.33593 h -4.15332 l -29.0747,-29.16894 z"
     id="path20100" /><path
     style="fill:none;stroke:#286125;stroke-width:0.1040067;stroke-miterlimit:4;stroke-opacity:1"
     d="M 190.71102,-19.604186 H 357.51766 V 222.51691 H 190.71102 V -19.604186 z"
     id="path20102" /><path
     style="fill:#008000;fill-rule:evenodd;stroke:#286125;stroke-width:0.1040067;stroke-miterlimit:10;stroke-opacity:1"
     d="m 190.87313,201.54718 v -4.16699 l 24.92089,25.00195 h -4.15332 l -20.76757,-20.83496 z"
     id="path20104" /><path
     style="fill:#008000;fill-rule:evenodd;stroke:#286125;stroke-width:0.1040067;stroke-miterlimit:10;stroke-opacity:1"
     d="m 190.87313,209.88117 v -4.167 l 16.61377,16.66797 h -4.15332 l -12.46045,-12.50097 z"
     id="path20106" /><path
     style="fill:none;stroke:#286125;stroke-width:0.1040067;stroke-miterlimit:4;stroke-opacity:1"
     d="M 190.71102,-19.604186 H 357.51766 V 222.51691 H 190.71102 V -19.604186 z"
     id="path20108" /><path
     style="fill:#008000;fill-rule:evenodd;stroke:#286125;stroke-width:0.1040067;stroke-miterlimit:10;stroke-opacity:1"
     d="m 190.87313,217.17316 v -3.125 l 8.30713,8.33398 h -2.07715 l -4.15332,-2.083"
     id="path20110" /></g><g
   inkscape:groupmode="layer"
   id="layer2"
   inkscape:label="android"
   style="display:inline" /><g
   inkscape:groupmode="layer"
   id="layer3"
   inkscape:label="top"
   style="display:inline"><rect
     style="opacity:0.92887029;fill:#ffffff;fill-opacity:1;stroke:#ffffff;stroke-width:0.96647549;stroke-miterlimit:4;stroke-opacity:1;stroke-dasharray:none"
     id="rect21435"
     width="103.03353"
     height="160.63353"
     x="20.483234"
     y="20.483234"
     rx="3.5672493"
     ry="3.1380198" /><g
     id="g21426"
     transform="translate(-323.72658,-46.368285)"><g
       style="stroke:#ffffff;stroke-opacity:1"
       id="g21420"><path
         style="opacity:0.977778;fill:#97c024;fill-opacity:1;fill-rule:nonzero;stroke:#ffffff;stroke-width:1.60000002;stroke-miterlimit:4;stroke-opacity:1;stroke-dasharray:none"
         d="m 225.275,29.625 c -0.18108,0.01322 -0.35923,0.0571 -0.525,0.15 l -0.075,0.05 c -0.66306,0.371591 -0.86482,1.263643 -0.45,2 l 5.6,9.975 c -5.0288,4.062098 -8.17499,9.72917 -8.175,16.025 0,0.83864 0.0419,1.685232 0.15,2.5 l 53.4,0 c 0.1081,-0.814768 0.15,-1.66136 0.15,-2.5 0,-6.151485 -2.99739,-11.708776 -7.825,-15.75 l 5.75,-9.95 c 0.41482,-0.716995 0.21306,-1.588179 -0.45,-1.95 l -0.1,-0.05 c -0.66306,-0.361821 -1.53518,-0.06699 -1.95,0.65 l -5.55,9.575 c -4.58995,-3.049187 -10.39782,-4.874993 -16.725,-4.875 -6.14932,0 -11.82258,1.729015 -16.35,4.625 l -5.45,-9.675 c -0.31112,-0.552267 -0.88177,-0.839658 -1.425,-0.8 z"
         id="path2170" /><path
         style="opacity:0.977778;fill:#97c024;fill-opacity:1;fill-rule:nonzero;stroke:#ffffff;stroke-width:1.60000002;stroke-miterlimit:4;stroke-opacity:1;stroke-dasharray:none"
         d="m 221.45,63.625 0,40.2 c 0,3.27905 3.55164,5.92502 7.95,5.925 l 3.075,0 0,13.275 c 0,3.37315 2.74686,6.075 6.15,6.075 3.40314,0 6.15,-2.70185 6.15,-6.075 l 0,-13.275 7.725,0 0,13.275 c 0,3.37315 2.72186,6.075 6.125,6.075 3.40314,0 6.15,-2.70185 6.15,-6.075 l 0,-13.275 2.475,0 c 4.39836,0 7.94999,-2.64595 7.95,-5.925 l 0,-40.2 -53.75,0 z"
         id="rect3158" /><rect
         style="opacity:0.977778;fill:#97c024;fill-opacity:1;fill-rule:nonzero;stroke:#ffffff;stroke-width:1.60000002;stroke-miterlimit:4;stroke-opacity:1;stroke-dasharray:none"
         id="rect3169"
         width="12.285714"
         height="37.714287"
         x="279.10272"
         y="62.612278"
         rx="7.7901978"
         ry="6.1536117" /><rect
         ry="6.1536117"
         rx="7.7901978"
         y="62.612278"
         x="205.5027"
         height="37.714287"
         width="12.285714"
         id="rect3171"
         style="opacity:0.977778;fill:#97c024;fill-opacity:1;fill-rule:nonzero;stroke:#ffffff;stroke-width:1.60000002;stroke-miterlimit:4;stroke-opacity:1;stroke-dasharray:none" /></g><path
       transform="matrix(0.8,0,0,0.8,-37.382994,-379.39177)"
       d="m 345.00001,536.11218 c 0,1.67658 -1.35914,3.03572 -3.03572,3.03572 -1.67657,0 -3.03571,-1.35914 -3.03571,-3.03572 0,-1.67658 1.35914,-3.03571 3.03571,-3.03571 1.67658,0 3.03572,1.35913 3.03572,3.03571 z"
       sodipodi:ry="3.0357144"
       sodipodi:rx="3.0357144"
       sodipodi:cy="536.11218"
       sodipodi:cx="341.96429"
       id="path3224"
       style="opacity:0.977778;fill:#ffffff;fill-opacity:1;fill-rule:nonzero;stroke:none"
       sodipodi:type="arc" /><path
       sodipodi:type="arc"
       style="opacity:0.977778;fill:#ffffff;fill-opacity:1;fill-rule:nonzero;stroke:none"
       id="path3226"
       sodipodi:cx="341.96429"
       sodipodi:cy="536.11218"
       sodipodi:rx="3.0357144"
       sodipodi:ry="3.0357144"
       d="m 345.00001,536.11218 c 0,1.67658 -1.35914,3.03572 -3.03572,3.03572 -1.67657,0 -3.03571,-1.35914 -3.03571,-3.03572 0,-1.67658 1.35914,-3.03571 3.03571,-3.03571 1.67658,0 3.03572,1.35913 3.03572,3.03571 z"
       transform="matrix(0.8,0,0,0.8,-12.66873,-379.39177)" /></g><g
     id="layer1"
     inkscape:label="Layer 1"
     transform="matrix(0.8,0,0,0.8,25.832579,44.784764)"><g
       transform="translate(-299.005,-503.076)"
       id="g3279"><g
         id="g3228"
         style="fill:#97c024;fill-opacity:1"><path
           id="path2170-5"
           d="m 356.78125,519.875 c -18.53143,0 -33.56249,12.50618 -33.5625,27.94217 0,1.0483 0.0524,2.09294 0.1875,3.1114 l 66.75,0 c 0.13512,-1.01846 0.1875,-2.0631 0.1875,-3.1114 0,-15.43599 -15.03107,-27.94215 -33.5625,-27.94217 z"
           style="opacity:0.977778;fill:#97c024;fill-opacity:1;stroke:none" /><path
           id="rect3158-8"
           d="m 322.96875,553.0625 0,50.25828 c 0,4.09881 4.42778,7.39799 9.92573,7.39797 l 47.3405,0 c 5.49794,0 9.92572,-3.29916 9.92573,-7.39797 l 0,-50.25828 -67.19196,0 z"
           style="opacity:0.977778;fill:#97c024;fill-opacity:1;stroke:none" /><rect
           ry="7.6109033"
           rx="9.7377472"
           y="597.04773"
           x="336.76315"
           height="37.857143"
           width="15.357142"
           id="rect3162"
           style="opacity:0.977778;fill:#97c024;fill-opacity:1;stroke:none" /><rect
           style="opacity:0.977778;fill:#97c024;fill-opacity:1;stroke:none"
           id="rect3164"
           width="15.357142"
           height="37.857143"
           x="361.77332"
           y="597.04773"
           rx="9.7377472"
           ry="7.6109033" /><rect
           style="opacity:0.977778;fill:#97c024;fill-opacity:1;stroke:none"
           id="rect3169-7"
           width="15.357142"
           height="47.142857"
           x="393.03571"
           y="551.79077"
           rx="9.7377472"
           ry="7.6920147" /><rect
           ry="7.6920147"
           rx="9.7377472"
           y="551.79077"
           x="305.03571"
           height="47.142857"
           width="15.357142"
           id="rect3171-5"
           style="opacity:0.977778;fill:#97c024;fill-opacity:1;stroke:none" /><rect
           transform="matrix(0.453399,0.891308,-0.84966,0.527331,0,0)"
           ry="1.2636521"
           rx="1.4815128"
           y="-68.508736"
           x="613.59875"
           height="2.6225123"
           width="14.824304"
           id="rect3191"
           style="opacity:0.977778;fill:#97c024;fill-opacity:1;stroke:none" /><rect
           style="opacity:0.977778;fill:#97c024;fill-opacity:1;stroke:none"
           id="rect3193"
           width="14.515503"
           height="2.6035209"
           x="242.79608"
           y="572.20447"
           rx="1.4506518"
           ry="1.254501"
           transform="matrix(-0.463044,0.886335,0.855858,0.517211,0,0)" /><path
           transform="translate(-0.571429,-0.714286)"
           d="m 345.00001,536.11218 c 0,1.67658 -1.35914,3.03572 -3.03572,3.03572 -1.67657,0 -3.03571,-1.35914 -3.03571,-3.03572 0,-1.67658 1.35914,-3.03571 3.03571,-3.03571 1.67658,0 3.03572,1.35913 3.03572,3.03571 z"
           sodipodi:ry="3.0357144"
           sodipodi:rx="3.0357144"
           sodipodi:cy="536.11218"
           sodipodi:cx="341.96429"
           id="path3196"
           style="opacity:0.977778;fill:#97c024;fill-opacity:1;stroke:none"
           sodipodi:type="arc" /><path
           sodipodi:type="arc"
           style="opacity:0.977778;fill:#97c024;fill-opacity:1;stroke:none"
           id="path3198"
           sodipodi:cx="341.96429"
           sodipodi:cy="536.11218"
           sodipodi:rx="3.0357144"
           sodipodi:ry="3.0357144"
           d="m 345.00001,536.11218 c 0,1.67658 -1.35914,3.03572 -3.03572,3.03572 -1.67657,0 -3.03571,-1.35914 -3.03571,-3.03572 0,-1.67658 1.35914,-3.03571 3.03571,-3.03571 1.67658,0 3.03572,1.35913 3.03572,3.03571 z"
           transform="translate(30.3214,-0.714286)" /></g><path
         transform="translate(-0.57143,-0.714286)"
         d="m 345.00001,536.11218 c 0,1.67658 -1.35914,3.03572 -3.03572,3.03572 -1.67657,0 -3.03571,-1.35914 -3.03571,-3.03572 0,-1.67658 1.35914,-3.03571 3.03571,-3.03571 1.67658,0 3.03572,1.35913 3.03572,3.03571 z"
         sodipodi:ry="3.0357144"
         sodipodi:rx="3.0357144"
         sodipodi:cy="536.11218"
         sodipodi:cx="341.96429"
         id="path3224-9"
         style="opacity:0.977778;fill:#ffffff;fill-opacity:1;stroke:none"
         sodipodi:type="arc" /><path
         sodipodi:type="arc"
         style="opacity:0.977778;fill:#ffffff;fill-opacity:1;stroke:none"
         id="path3226-8"
         sodipodi:cx="341.96429"
         sodipodi:cy="536.11218"
         sodipodi:rx="3.0357144"
         sodipodi:ry="3.0357144"
         d="m 345.00001,536.11218 c 0,1.67658 -1.35914,3.03572 -3.03572,3.03572 -1.67657,0 -3.03571,-1.35914 -3.03571,-3.03572 0,-1.67658 1.35914,-3.03571 3.03571,-3.03571 1.67658,0 3.03572,1.35913 3.03572,3.03571 z"
         transform="translate(30.3214,-0.714286)" /></g></g></g>
</svg>