<svg xmlns="http://www.w3.org/2000/svg" width="480" height="800">
    <defs>
        <linearGradient id="a">
            <stop style="stop-color:#fff;stop-opacity:1" offset="0"/>
            <stop style="stop-color:#000;stop-opacity:1" offset="1"/>
        </linearGradient>
    </defs>
    <g style="display:inline">
        <text xml:space="preserve" style="font-size:12px;font-style:normal;font-variant:normal;font-weight:400;font-stretch:normal;fill:#000;fill-opacity:1;stroke:none;font-family:DejaVu Sans;-inkscape-font-specification:DejaVu Sans" x="-23.879" y="-40.645" transform="translate(0 548)"/>
        <g transform="translate(0 548)">
            <rect style="fill:#fff;fill-opacity:1;stroke:#000;stroke-width:.84927487;stroke-miterlimit:4;stroke-opacity:1;stroke-dasharray:none;display:inline" width="76.014" height="106.588" x="161.646" y="-405.87" rx="13.372"/>
            <rect rx="13.372" y="-405.87" x="323.033" height="106.588" width="76.014" style="fill:#fff;fill-opacity:1;stroke:#000;stroke-width:.84927487;stroke-miterlimit:4;stroke-opacity:1;stroke-dasharray:none;display:inline"/>
            <rect style="fill:#fff;fill-opacity:1;stroke:#000;stroke-width:.84927487;stroke-miterlimit:4;stroke-opacity:1;stroke-dasharray:none;display:inline" width="76.014" height="106.588" x="80.953" y="-405.87" rx="13.372"/>
            <rect rx="13.372" y="-405.87" x="242.34" height="106.588" width="76.014" style="fill:#fff;fill-opacity:1;stroke:#000;stroke-width:.84927487;stroke-miterlimit:4;stroke-opacity:1;stroke-dasharray:none;display:inline"/>
            <rect rx="13.372" y="-284.718" x="40.802" height="106.588" width="76.014" style="fill:#fff;fill-opacity:1;stroke:red;stroke-width:.84927487;stroke-miterlimit:4;stroke-opacity:1;stroke-dasharray:none;display:inline"/>
            <rect style="fill:#fff;fill-opacity:1;stroke:red;stroke-width:.84927487;stroke-miterlimit:4;stroke-opacity:1;stroke-dasharray:none;display:inline" width="76.014" height="106.588" x="121.398" y="-284.718" rx="13.372"/>
            <rect rx="13.372" y="-284.718" x="201.993" height="106.588" width="76.014" style="fill:#fff;fill-opacity:1;stroke:red;stroke-width:.84927487;stroke-miterlimit:4;stroke-opacity:1;stroke-dasharray:none;display:inline"/>
            <rect style="fill:#fff;fill-opacity:1;stroke:red;stroke-width:.84927487;stroke-miterlimit:4;stroke-opacity:1;stroke-dasharray:none;display:inline" width="76.014" height="106.588" x="282.588" y="-284.718" rx="13.372"/>
            <rect rx="13.372" y="-284.718" x="363.184" height="106.588" width="76.014" style="fill:#fff;fill-opacity:1;stroke:red;stroke-width:.84927487;stroke-miterlimit:4;stroke-opacity:1;stroke-dasharray:none;display:inline"/>
            <g style="font-size:8.83200836px;font-style:normal;font-variant:normal;font-weight:400;font-stretch:normal;fill:red;fill-opacity:1;stroke:none;font-family:DejaVu Sans;-inkscape-font-specification:DejaVu Sans">
                <path d="M191.93-370.42v-1.936h-2.555v-16.61l-7.172.33v1.937c2.432 0 2.72 0 2.72 1.607v12.736h-2.844v1.937l5.029-.124 4.822.124m-1.978-25.018a3.219 3.219 0 0 0-3.215-3.215 3.219 3.219 0 0 0-3.215 3.215 3.219 3.219 0 0 0 3.215 3.215 3.219 3.219 0 0 0 3.215-3.215" style="font-size:41.21603775px;font-weight:700;text-align:center;text-anchor:middle;fill:#000;font-family:LMRoman10;-inkscape-font-specification:LMRoman10 Bold"/>
            </g>
            <g style="font-size:5.09564924px;font-style:normal;font-variant:normal;font-weight:400;font-stretch:normal;fill:#000;fill-opacity:1;stroke:none;font-family:DejaVu Sans;-inkscape-font-specification:DejaVu Sans">
                <path d="M199.698-350.22c1.871 3.323 4.956 7.732 9.256 13.226 4.717 5.534 7.136 8.868 7.255 10.002.776 1.692 1.165 3.334 1.165 4.927v1.194c0 3.324-1.613 5.942-4.837 7.853-1.055.437-2.22.656-3.494.656-3.065 0-5.543-2.2-7.434-6.598h-1.254v.358c0 5.633.826 9.943 2.478 12.928h-6.42v-.179c1.693-3.005 2.539-7.345 2.539-13.017l-.09-.09h-1.135l-1.403 2.627c-1.692 2.648-3.802 3.971-6.33 3.971-3.722 0-6.34-2.08-7.852-6.24l-.269-2.18v-1.373c0-3.642 1.861-7.484 5.584-11.525 6.27-7.683 10.29-13.167 12.062-16.451l.09-.09h.09" style="font-size:61.14779282px;fill:#000"/>
            </g>
            <g style="font-size:8.83200836px;font-style:normal;font-variant:normal;font-weight:400;font-stretch:normal;fill:red;fill-opacity:1;stroke:none;font-family:DejaVu Sans;-inkscape-font-specification:DejaVu Sans">
                <path d="M353.317-370.42v-1.936h-2.556v-16.61l-7.171.33v1.937c2.431 0 2.72 0 2.72 1.607v12.736h-2.844v1.937l5.028-.124 4.823.124m-1.979-25.018a3.219 3.219 0 0 0-3.214-3.215 3.219 3.219 0 0 0-3.215 3.215 3.219 3.219 0 0 0 3.215 3.215 3.219 3.219 0 0 0 3.214-3.215" style="font-size:41.21603775px;font-weight:700;text-align:center;text-anchor:middle;fill:#000;font-family:LMRoman10;-inkscape-font-specification:LMRoman10 Bold"/>
            </g>
            <g style="font-size:5.09564924px;font-style:normal;font-variant:normal;font-weight:400;font-stretch:normal;fill:#000;fill-opacity:1;stroke:none;font-family:DejaVu Sans;-inkscape-font-specification:DejaVu Sans">
                <path d="M361.085-350.22c1.87 3.323 4.956 7.732 9.256 13.226 4.717 5.534 7.135 8.868 7.255 10.002.776 1.692 1.164 3.334 1.164 4.927v1.194c0 3.324-1.612 5.942-4.836 7.853-1.055.437-2.22.656-3.494.656-3.065 0-5.543-2.2-7.434-6.598h-1.254v.358c0 5.633.826 9.943 2.478 12.928h-6.42v-.179c1.692-3.005 2.538-7.345 2.538-13.017l-.09-.09h-1.134l-1.403 2.627c-1.692 2.648-3.802 3.971-6.33 3.971-3.722 0-6.34-2.08-7.852-6.24l-.269-2.18v-1.373c0-3.642 1.861-7.484 5.583-11.525 6.27-7.683 10.291-13.167 12.063-16.451l.09-.09h.089" style="font-size:61.14779282px;fill:#000"/>
            </g>
            <g style="font-size:8.83200836px;font-style:normal;font-variant:normal;font-weight:400;font-stretch:normal;fill:red;fill-opacity:1;stroke:none;font-family:DejaVu Sans;-inkscape-font-specification:DejaVu Sans">
                <path d="M124.784-370.42v-1.936h-2.844v-10.675c0-4.245-2.102-5.935-6.347-5.935-3.751 0-5.894 2.06-6.966 3.956-.824-3.833-4.616-3.956-6.182-3.956-3.586 0-5.935 1.854-7.254 4.451v-4.451l-7.09.33v1.937c2.556 0 2.844 0 2.844 1.607v12.736h-2.844v1.937l5.194-.124 5.193.124v-1.937h-2.844v-8.614c0-4.493 3.586-6.513 6.141-6.513 1.402 0 2.308.825 2.308 3.998v11.129h-2.844v1.937l5.194-.124 5.193.124v-1.937h-2.844v-8.614c0-4.493 3.586-6.513 6.141-6.513 1.401 0 2.308.825 2.308 3.998v11.129h-2.844v1.937l5.194-.124 5.193.124" style="font-size:41.21603775px;font-weight:700;text-align:center;text-anchor:middle;fill:#000;font-family:LMRoman10;-inkscape-font-specification:LMRoman10 Bold"/>
            </g>
            <g style="font-size:5.09564924px;font-style:normal;font-variant:normal;font-weight:400;font-stretch:normal;fill:#000;fill-opacity:1;stroke:none;font-family:DejaVu Sans;-inkscape-font-specification:DejaVu Sans">
                <path d="M118.975-350.22c4.26 0 7.394 2.259 9.405 6.777.259 1.035.418 2.11.478 3.225 0 2.328-1.195 5.085-3.583 8.27l-1.792 1.791h.09c1.473-.557 3.045-.836 4.717-.836h.568c4.737 0 8.061 2.01 9.972 6.032.458 1.313.687 2.567.687 3.762 0 4.08-2.08 7.155-6.24 9.226-.797.238-1.901.418-3.315.537-4.817 0-8.23-2.727-10.24-8.18h-.09v.268c0 6.827.816 11.326 2.448 13.495v.18h-6.21l-.18-.18c1.692-2.548 2.538-7.136 2.538-13.764v-.09h-.09c-1.99 5.514-5.423 8.271-10.3 8.27-3.802.001-6.718-2-8.748-6-.498-1.354-.747-2.608-.747-3.762 0-4.638 2.449-7.783 7.345-9.435 1.314-.24 2.478-.359 3.494-.359h.268c1.712 0 3.344.28 4.897.836h.09v-.09c-1.672-1.412-2.797-2.806-3.374-4.18-1.195-2.189-1.792-4.09-1.792-5.702v-.418c0-4 2.14-7.036 6.42-9.106 1.413-.379 2.508-.568 3.284-.568" style="font-size:61.14779282px;fill:#000"/>
            </g>
            <g style="font-size:8.83200836px;font-style:normal;font-variant:normal;font-weight:400;font-stretch:normal;fill:red;fill-opacity:1;stroke:none;font-family:DejaVu Sans;-inkscape-font-specification:DejaVu Sans">
                <path d="M279.582-370.42v-1.936h-2.843v-10.675c0-4.328-2.226-5.935-6.348-5.935-3.957 0-6.141 2.349-7.213 4.451v-4.451l-7.089.33v1.937c2.556 0 2.844 0 2.844 1.607v12.736h-2.844v1.937l5.193-.124 5.194.124v-1.937h-2.844v-8.614c0-4.493 3.544-6.513 6.141-6.513 1.401 0 2.267.866 2.267 3.998v11.129h-2.844v1.937l5.193-.124 5.193.124" style="font-size:41.21603775px;font-weight:700;text-align:center;text-anchor:middle;fill:#000;font-family:LMRoman10;-inkscape-font-specification:LMRoman10 Bold"/>
            </g>
            <g style="font-size:5.09564924px;font-style:normal;font-variant:normal;font-weight:400;font-stretch:normal;fill:#000;fill-opacity:1;stroke:none;font-family:DejaVu Sans;-inkscape-font-specification:DejaVu Sans">
                <path d="M280.362-350.22c4.26 0 7.394 2.259 9.405 6.777.258 1.035.418 2.11.477 3.225 0 2.328-1.194 5.085-3.583 8.27l-1.79 1.791h.089c1.473-.557 3.045-.836 4.717-.836h.567c4.738 0 8.062 2.01 9.973 6.032.458 1.313.686 2.567.686 3.762 0 4.08-2.08 7.155-6.24 9.226-.796.238-1.9.418-3.314.537-4.817 0-8.23-2.727-10.24-8.18h-.09v.268c0 6.827.816 11.326 2.448 13.495v.18h-6.21l-.18-.18c1.692-2.548 2.538-7.136 2.538-13.764v-.09h-.09c-1.99 5.514-5.424 8.271-10.3 8.27-3.802.001-6.718-2-8.748-6-.498-1.354-.747-2.608-.747-3.762 0-4.638 2.448-7.783 7.345-9.435 1.314-.24 2.478-.359 3.493-.359h.27c1.71 0 3.343.28 4.896.836h.09v-.09c-1.673-1.412-2.797-2.806-3.375-4.18-1.194-2.189-1.791-4.09-1.791-5.702v-.418c0-4 2.14-7.036 6.42-9.106 1.413-.379 2.507-.568 3.284-.568" style="font-size:61.14779282px;fill:#000"/>
            </g>
            <g style="font-size:8.83200836px;font-style:normal;font-variant:normal;font-weight:400;font-stretch:normal;fill:red;fill-opacity:1;stroke:none;font-family:DejaVu Sans;-inkscape-font-specification:DejaVu Sans">
                <path d="m80.557-267.155-.866-9.933H51.953l-.866 9.933h1.938c.37-4.657.783-7.996 6.718-7.996h3.173v23.947H56.61v1.937c2.226-.124 6.801-.124 9.233-.124 2.432 0 7.007 0 9.232.124v-1.937H68.77v-23.947h3.133c5.893 0 6.306 3.298 6.718 7.996h1.937" style="font-size:41.21603775px;font-weight:700;text-align:center;text-anchor:middle;fill:red;font-family:LMRoman10;-inkscape-font-specification:LMRoman10 Bold"/>
            </g>
            <g style="font-size:5.09564924px;font-style:normal;font-variant:normal;font-weight:400;font-stretch:normal;fill:red;fill-opacity:1;stroke:none;font-family:DejaVu Sans;-inkscape-font-specification:DejaVu Sans">
                <path d="M67.867-229.068c4.04 0 7.215 2.338 9.524 7.016.836 1.851 1.274 3.264 1.314 4.24h.09c.696-3.225 1.96-5.902 3.791-8.032 2.15-2.15 4.568-3.224 7.256-3.224 4.16 0 7.494 2.229 10.002 6.688.637 1.652.955 3.204.955 4.657 0 4.977-2.07 9.724-6.21 14.242l-15.795 18.96h-.179l-16.78-20.572c-3.344-4.08-5.016-8.29-5.016-12.63 0-4.2 1.98-7.534 5.942-10.002 1.672-.896 3.374-1.343 5.106-1.343" style="font-size:61.14779282px;fill:red"/>
            </g>
            <g style="font-size:8.83200836px;font-style:normal;font-variant:normal;font-weight:400;font-stretch:normal;fill:red;fill-opacity:1;stroke:none;font-family:DejaVu Sans;-inkscape-font-specification:DejaVu Sans">
                <path d="M154.891-264.434c0-2.185-2.226-3.38-4.369-3.38-2.885 0-4.534 2.06-5.482 4.657v-4.657l-6.842.33v1.937c2.556 0 2.844 0 2.844 1.607v12.736h-2.844v1.937l5.194-.124c1.566 0 4.204 0 5.688.124v-1.937h-3.586v-7.213c0-2.885 1.03-7.913 5.152-7.913 0 0-.783.7-.783 1.896 0 1.69 1.319 2.514 2.514 2.514 1.195 0 2.514-.866 2.514-2.514" style="font-size:41.21603775px;font-weight:700;text-align:center;text-anchor:middle;fill:red;font-family:LMRoman10;-inkscape-font-specification:LMRoman10 Bold"/>
            </g>
            <g style="font-size:5.09564924px;font-style:normal;font-variant:normal;font-weight:400;font-stretch:normal;fill:red;fill-opacity:1;stroke:none;font-family:DejaVu Sans;-inkscape-font-specification:DejaVu Sans">
                <path d="m159.39-229.068 15.018 19.496c1.373 1.692 2.06 2.668 2.06 2.926L159.39-184.52c-.24-.16-5.952-7.534-17.138-22.125 0-.278 1.104-1.791 3.314-4.538l13.824-17.884" style="font-size:61.14779282px;fill:red"/>
            </g>
            <g style="font-size:8.83200836px;font-style:normal;font-variant:normal;font-weight:400;font-stretch:normal;fill:red;fill-opacity:1;stroke:none;font-family:DejaVu Sans;-inkscape-font-specification:DejaVu Sans">
                <path d="M239.236-249.267v-1.937c-2.556 0-2.844 0-2.844-1.607v-15.003l-7.543.33v1.937c2.556 0 2.844 0 2.844 1.607v7.872c0 3.38-2.102 5.565-5.11 5.565-3.174 0-3.298-1.03-3.298-3.256v-14.055l-7.542.33v1.937c2.555 0 2.843 0 2.843 1.607v9.604c0 4.41 3.339 5.316 7.42 5.316 1.071 0 4.039 0 5.934-3.214v3.214l7.296-.247" style="font-size:41.21603775px;font-weight:700;text-align:center;text-anchor:middle;fill:red;font-family:LMRoman10;-inkscape-font-specification:LMRoman10 Bold"/>
            </g>
            <g style="font-size:5.09564924px;font-style:normal;font-variant:normal;font-weight:400;font-stretch:normal;fill:red;fill-opacity:1;stroke:none;font-family:DejaVu Sans;-inkscape-font-specification:DejaVu Sans">
                <path d="M229.057-229.068c4.041 0 7.216 2.338 9.525 7.016.836 1.851 1.274 3.264 1.313 4.24h.09c.697-3.225 1.96-5.902 3.792-8.032 2.15-2.15 4.568-3.224 7.255-3.224 4.16 0 7.494 2.229 10.003 6.688.636 1.652.955 3.204.955 4.657 0 4.977-2.07 9.724-6.21 14.242l-15.795 18.96h-.179l-16.78-20.572c-3.344-4.08-5.016-8.29-5.016-12.63 0-4.2 1.98-7.534 5.942-10.002 1.672-.896 3.374-1.343 5.105-1.343" style="font-size:61.14779282px;fill:red"/>
            </g>
            <g style="font-size:8.83200836px;font-style:normal;font-variant:normal;font-weight:400;font-stretch:normal;fill:red;fill-opacity:1;stroke:none;font-family:DejaVu Sans;-inkscape-font-specification:DejaVu Sans">
                <path d="M316.8-254.09c0-.576-.576-.576-.988-.576-.742 0-.784.082-.99.618-1.071 2.597-3.05 3.38-5.152 3.38-5.729 0-5.729-6.059-5.729-7.955 0-2.308 0-7.666 5.317-7.666 1.443 0 2.143.124 2.68.247-.743.66-.825 1.525-.825 1.896 0 1.814 1.442 2.597 2.555 2.597 1.278 0 2.597-.866 2.597-2.597 0-3.544-4.781-3.792-7.172-3.792-7.377 0-10.427 4.74-10.427 9.521 0 5.482 3.874 9.397 10.221 9.397 6.677 0 7.914-4.78 7.914-5.07" style="font-size:41.21603775px;font-weight:700;text-align:center;text-anchor:middle;fill:red;font-family:LMRoman10;-inkscape-font-specification:LMRoman10 Bold"/>
            </g>
            <g style="font-size:5.09564924px;font-style:normal;font-variant:normal;font-weight:400;font-stretch:normal;fill:red;fill-opacity:1;stroke:none;font-family:DejaVu Sans;-inkscape-font-specification:DejaVu Sans">
                <path d="m320.58-229.068 15.019 19.496c1.373 1.692 2.06 2.668 2.06 2.926L320.58-184.52c-.238-.16-5.951-7.534-17.138-22.125 0-.278 1.105-1.791 3.314-4.538l13.824-17.884" style="font-size:61.14779282px;fill:red"/>
            </g>
            <g style="font-size:8.83200836px;font-style:normal;font-variant:normal;font-weight:400;font-stretch:normal;fill:red;fill-opacity:1;stroke:none;font-family:DejaVu Sans;-inkscape-font-specification:DejaVu Sans">
                <path d="M398.746-258.252c0-5.523-3.792-9.686-10.51-9.686-6.76 0-10.51 4.204-10.51 9.686 0 5.11 3.627 9.232 10.51 9.232 6.924 0 10.51-4.162 10.51-9.232m-5.276-.453c0 3.585 0 8.037-5.234 8.037-5.235 0-5.235-4.452-5.235-8.037 0-1.855 0-3.957.701-5.358.783-1.525 2.514-2.391 4.534-2.391 1.73 0 3.462.66 4.369 2.102.865 1.401.865 3.668.865 5.647" style="font-size:41.21603775px;font-weight:700;text-align:center;text-anchor:middle;fill:red;font-family:LMRoman10;-inkscape-font-specification:LMRoman10 Bold"/>
            </g>
            <g style="font-size:5.09564924px;font-style:normal;font-variant:normal;font-weight:400;font-stretch:normal;fill:red;fill-opacity:1;stroke:none;font-family:DejaVu Sans;-inkscape-font-specification:DejaVu Sans">
                <path d="M390.248-229.068c4.04 0 7.216 2.338 9.525 7.016.835 1.851 1.273 3.264 1.313 4.24h.09c.696-3.225 1.96-5.902 3.792-8.032 2.15-2.15 4.568-3.224 7.255-3.224 4.16 0 7.494 2.229 10.002 6.688.637 1.652.956 3.204.956 4.657 0 4.977-2.07 9.724-6.21 14.242l-15.795 18.96h-.18l-16.78-20.572c-3.343-4.08-5.015-8.29-5.015-12.63 0-4.2 1.98-7.534 5.941-10.002 1.672-.896 3.374-1.343 5.106-1.343" style="font-size:61.14779282px;fill:red"/>
            </g>
        </g>
    </g>
</svg>
